<svg xmlns="http://www.w3.org/2000/svg" viewBox="0 0 1280 790" width="1280" height="790">
  <rect width="1280" height="790" fill="#ffffff"/>
  <text x="40" y="34" font-family="system-ui, 'Segoe UI', Roboto, Arial, sans-serif" font-size="17" font-weight="600" fill="#333333">LearnCode — AWS deployment topology</text>
  <rect x="300" y="50" width="940" height="700" fill="none" stroke="#ff9900" stroke-width="1.4" stroke-dasharray="6 4"/>
  <text x="310" y="66" font-family="system-ui, 'Segoe UI', Roboto, Arial, sans-serif" font-size="11" font-style="italic" fill="#ff9900">AWS account — region eu-west-1</text>
  <line x1="240.0" y1="168.9" x2="321.1" y2="155.8" stroke="#4d4d4d" stroke-width="1.3"/>
  <polygon points="330.0,154.4 321.8,160.2 320.4,151.3" fill="#4d4d4d"/>
  <rect x="253.5" y="153.6" width="63.0" height="14" fill="#ffffff" opacity="0.92"/>
  <text x="285.0" y="163.6" font-family="system-ui, 'Segoe UI', Roboto, Arial, sans-serif" font-size="10" fill="#4d4d4d" text-anchor="middle">HTTPS  app</text>
  <line x1="214.8" y1="220.0" x2="335.0" y2="276.2" stroke="#4d4d4d" stroke-width="1.3"/>
  <polygon points="343.1,280.0 333.0,280.3 336.9,272.1" fill="#4d4d4d"/>
  <rect x="244.7" y="242.0" width="68.5" height="14" fill="#ffffff" opacity="0.92"/>
  <text x="279.0" y="252.0" font-family="system-ui, 'Segoe UI', Roboto, Arial, sans-serif" font-size="10" fill="#4d4d4d" text-anchor="middle">HTTPS  /api</text>
  <line x1="173.9" y1="220.0" x2="400.1" y2="453.5" stroke="#4d4d4d" stroke-width="1.3"/>
  <polygon points="406.4,460.0 396.9,456.7 403.4,450.4" fill="#4d4d4d"/>
  <rect x="253.2" y="332.0" width="74.0" height="14" fill="#ffffff" opacity="0.92"/>
  <text x="290.2" y="342.0" font-family="system-ui, 'Segoe UI', Roboto, Arial, sans-serif" font-size="10" fill="#4d4d4d" text-anchor="middle">sign-in, JWT</text>
  <line x1="570.0" y1="330.0" x2="621.0" y2="330.0" stroke="#4d4d4d" stroke-width="1.3"/>
  <polygon points="630.0,330.0 621.0,334.5 621.0,325.5" fill="#4d4d4d"/>
  <rect x="574.0" y="322.0" width="52.0" height="14" fill="#ffffff" opacity="0.92"/>
  <text x="600.0" y="332.0" font-family="system-ui, 'Segoe UI', Roboto, Arial, sans-serif" font-size="10" fill="#4d4d4d" text-anchor="middle">HTTP :80</text>
  <line x1="725.8" y1="380.0" x2="495.7" y2="613.6" stroke="#4d4d4d" stroke-width="1.3"/>
  <polygon points="489.4,620.0 492.5,610.4 498.9,616.7" fill="#4d4d4d"/>
  <rect x="595.3" y="492.0" width="24.5" height="14" fill="#ffffff" opacity="0.92"/>
  <text x="607.6" y="502.0" font-family="system-ui, 'Segoe UI', Roboto, Arial, sans-serif" font-size="10" fill="#4d4d4d" text-anchor="middle">TLS</text>
  <line x1="920.0" y1="321.1" x2="971.0" y2="317.9" stroke="#4d4d4d" stroke-width="1.3"/>
  <polygon points="980.0,317.4 971.3,322.4 970.7,313.4" fill="#4d4d4d"/>
  <rect x="937.8" y="311.2" width="24.5" height="14" fill="#ffffff" opacity="0.92"/>
  <text x="950.0" y="321.2" font-family="system-ui, 'Segoe UI', Roboto, Arial, sans-serif" font-size="10" fill="#4d4d4d" text-anchor="middle">SDK</text>
  <line x1="862.8" y1="280.0" x2="995.6" y2="204.5" stroke="#4d4d4d" stroke-width="1.3"/>
  <polygon points="1003.4,200.0 997.8,208.4 993.3,200.5" fill="#4d4d4d"/>
  <rect x="912.6" y="232.0" width="41.0" height="14" fill="#ffffff" opacity="0.92"/>
  <text x="933.1" y="242.0" font-family="system-ui, 'Segoe UI', Roboto, Arial, sans-serif" font-size="10" fill="#4d4d4d" text-anchor="middle">Invoke</text>
  <line x1="910.4" y1="380.0" x2="1010.3" y2="416.9" stroke="#4d4d4d" stroke-width="1.3"/>
  <polygon points="1018.8,420.0 1008.7,421.1 1011.9,412.7" fill="#4d4d4d"/>
  <rect x="952.3" y="392.0" width="24.5" height="14" fill="#ffffff" opacity="0.92"/>
  <text x="964.6" y="402.0" font-family="system-ui, 'Segoe UI', Roboto, Arial, sans-serif" font-size="10" fill="#4d4d4d" text-anchor="middle">SDK</text>
  <line x1="844.1" y1="380.0" x2="1044.3" y2="524.7" stroke="#4d4d4d" stroke-width="1.3"/>
  <polygon points="1051.6,530.0 1041.7,528.4 1046.9,521.1" fill="#4d4d4d"/>
  <rect x="932.9" y="447.0" width="30.0" height="14" fill="#ffffff" opacity="0.92"/>
  <text x="947.9" y="457.0" font-family="system-ui, 'Segoe UI', Roboto, Arial, sans-serif" font-size="10" fill="#4d4d4d" text-anchor="middle">logs</text>
  <line x1="682.1" y1="380.0" x2="541.5" y2="455.7" stroke="#4d4d4d" stroke-width="1.3" stroke-dasharray="6 4"/>
  <polygon points="533.6,460.0 539.4,451.8 543.6,459.7" fill="#4d4d4d"/>
  <rect x="576.4" y="412.0" width="63.0" height="14" fill="#ffffff" opacity="0.92"/>
  <text x="607.9" y="422.0" font-family="system-ui, 'Segoe UI', Roboto, Arial, sans-serif" font-size="10" fill="#4d4d4d" text-anchor="middle">verify JWT</text>
  <line x1="240.0" y1="493.4" x2="621.0" y2="487.4" stroke="#4d4d4d" stroke-width="1.3" stroke-dasharray="6 4"/>
  <polygon points="630.0,487.3 621.1,491.9 620.9,482.9" fill="#4d4d4d"/>
  <rect x="400.8" y="482.4" width="68.5" height="14" fill="#ffffff" opacity="0.92"/>
  <text x="435.0" y="492.4" font-family="system-ui, 'Segoe UI', Roboto, Arial, sans-serif" font-size="10" fill="#4d4d4d" text-anchor="middle">assume role</text>
  <line x1="775.0" y1="520.0" x2="775.0" y2="551.0" stroke="#4d4d4d" stroke-width="1.3" stroke-dasharray="6 4"/>
  <polygon points="775.0,560.0 770.5,551.0 779.5,551.0" fill="#4d4d4d"/>

  <line x1="775.0" y1="560.0" x2="775.0" y2="389.0" stroke="#4d4d4d" stroke-width="1.3" stroke-dasharray="6 4"/>
  <polygon points="775.0,380.0 779.5,389.0 770.5,389.0" fill="#4d4d4d"/>
  <rect x="732.5" y="462.0" width="85.0" height="14" fill="#ffffff" opacity="0.92"/>
  <text x="775.0" y="472.0" font-family="system-ui, 'Segoe UI', Roboto, Arial, sans-serif" font-size="10" fill="#4d4d4d" text-anchor="middle">pull + restart</text>
  <line x1="170.1" y1="460.0" x2="405.4" y2="186.8" stroke="#4d4d4d" stroke-width="1.3" stroke-dasharray="6 4"/>
  <polygon points="411.3,180.0 408.8,189.8 402.0,183.9" fill="#4d4d4d"/>
  <rect x="248.2" y="312.0" width="85.0" height="14" fill="#ffffff" opacity="0.92"/>
  <text x="290.7" y="322.0" font-family="system-ui, 'Segoe UI', Roboto, Arial, sans-serif" font-size="10" fill="#4d4d4d" text-anchor="middle">triggers build</text>
  <line x1="775.0" y1="650.0" x2="775.0" y2="389.0" stroke="#4d4d4d" stroke-width="1.3" stroke-dasharray="6 4"/>
  <polygon points="775.0,380.0 779.5,389.0 770.5,389.0" fill="#4d4d4d"/>
  <rect x="749.0" y="507.0" width="52.0" height="14" fill="#ffffff" opacity="0.92"/>
  <text x="775.0" y="517.0" font-family="system-ui, 'Segoe UI', Roboto, Arial, sans-serif" font-size="10" fill="#4d4d4d" text-anchor="middle">attached</text>
  <rect x="40" y="150" width="200" height="70" rx="6" fill="#f5f5f5" stroke="#666666" stroke-width="1.4"/>
  <text x="140" y="182.5" font-family="system-ui, 'Segoe UI', Roboto, Arial, sans-serif" font-size="11.5" font-weight="600" fill="#333333" text-anchor="middle">Browser</text>
  <text x="140" y="195.5" font-family="system-ui, 'Segoe UI', Roboto, Arial, sans-serif" font-size="10" font-weight="400" fill="#333333" text-anchor="middle">student · instructor · admin</text>
  <rect x="330" y="90" width="240" height="90" rx="6" fill="#d5e8d4" stroke="#82b366" stroke-width="1.4"/>
  <text x="450" y="126" font-family="system-ui, 'Segoe UI', Roboto, Arial, sans-serif" font-size="11.5" font-weight="600" fill="#333333" text-anchor="middle">AWS Amplify Hosting</text>
  <text x="450" y="139" font-family="system-ui, 'Segoe UI', Roboto, Arial, sans-serif" font-size="10" font-weight="400" fill="#333333" text-anchor="middle">React SPA (Vite build)</text>
  <text x="450" y="152" font-family="system-ui, 'Segoe UI', Roboto, Arial, sans-serif" font-size="10" font-weight="400" fill="#333333" text-anchor="middle">branch dev, builds on push</text>
  <rect x="330" y="280" width="240" height="100" rx="6" fill="#dae8fc" stroke="#6c8ebf" stroke-width="1.4"/>
  <text x="450" y="314.5" font-family="system-ui, 'Segoe UI', Roboto, Arial, sans-serif" font-size="11.5" font-weight="600" fill="#333333" text-anchor="middle">CloudFront</text>
  <text x="450" y="327.5" font-family="system-ui, 'Segoe UI', Roboto, Arial, sans-serif" font-size="10" font-weight="400" fill="#333333" text-anchor="middle">HTTPS for the API</text>
  <text x="450" y="340.5" font-family="system-ui, 'Segoe UI', Roboto, Arial, sans-serif" font-size="10" font-weight="400" fill="#333333" text-anchor="middle">CachingDisabled +</text>
  <text x="450" y="353.5" font-family="system-ui, 'Segoe UI', Roboto, Arial, sans-serif" font-size="10" font-weight="400" fill="#333333" text-anchor="middle">AllViewerExceptHostHeader</text>
  <rect x="330" y="460" width="240" height="90" rx="6" fill="#e1d5e7" stroke="#9673a6" stroke-width="1.4"/>
  <text x="450" y="496" font-family="system-ui, 'Segoe UI', Roboto, Arial, sans-serif" font-size="11.5" font-weight="600" fill="#333333" text-anchor="middle">Cognito User Pool</text>
  <text x="450" y="509" font-family="system-ui, 'Segoe UI', Roboto, Arial, sans-serif" font-size="10" font-weight="400" fill="#333333" text-anchor="middle">groups student | instructor | admin</text>
  <text x="450" y="522" font-family="system-ui, 'Segoe UI', Roboto, Arial, sans-serif" font-size="10" font-weight="400" fill="#333333" text-anchor="middle">issues the JWT the API verifies</text>
  <rect x="630" y="280" width="290" height="100" rx="6" fill="#ffe6cc" stroke="#d79b00" stroke-width="1.4"/>
  <text x="775" y="314.5" font-family="system-ui, 'Segoe UI', Roboto, Arial, sans-serif" font-size="11.5" font-weight="600" fill="#333333" text-anchor="middle">EC2 t3.micro — learncode-api</text>
  <text x="775" y="327.5" font-family="system-ui, 'Segoe UI', Roboto, Arial, sans-serif" font-size="10" font-weight="400" fill="#333333" text-anchor="middle">Amazon Linux 2023, Elastic IP</text>
  <text x="775" y="340.5" font-family="system-ui, 'Segoe UI', Roboto, Arial, sans-serif" font-size="10" font-weight="400" fill="#333333" text-anchor="middle">nginx :80  →  node :4000</text>
  <text x="775" y="353.5" font-family="system-ui, 'Segoe UI', Roboto, Arial, sans-serif" font-size="10" font-weight="400" fill="#333333" text-anchor="middle">systemd unit learncode-api</text>
  <rect x="980" y="90" width="240" height="110" rx="6" fill="#ffe6cc" stroke="#d79b00" stroke-width="1.4"/>
  <text x="1100" y="129.5" font-family="system-ui, 'Segoe UI', Roboto, Arial, sans-serif" font-size="11.5" font-weight="600" fill="#333333" text-anchor="middle">Lambda code runners</text>
  <text x="1100" y="142.5" font-family="system-ui, 'Segoe UI', Roboto, Arial, sans-serif" font-size="10" font-weight="400" fill="#333333" text-anchor="middle">learncode-runner-js (Node.js)</text>
  <text x="1100" y="155.5" font-family="system-ui, 'Segoe UI', Roboto, Arial, sans-serif" font-size="10" font-weight="400" fill="#333333" text-anchor="middle">learncode-runner-py (Python)</text>
  <text x="1100" y="168.5" font-family="system-ui, 'Segoe UI', Roboto, Arial, sans-serif" font-size="10" font-weight="400" fill="#333333" text-anchor="middle">credentials scrubbed per call</text>
  <rect x="980" y="260" width="240" height="100" rx="6" fill="#ffe6cc" stroke="#d79b00" stroke-width="1.4"/>
  <text x="1100" y="301" font-family="system-ui, 'Segoe UI', Roboto, Arial, sans-serif" font-size="11.5" font-weight="600" fill="#333333" text-anchor="middle">DynamoDB — learncode_progress</text>
  <text x="1100" y="314" font-family="system-ui, 'Segoe UI', Roboto, Arial, sans-serif" font-size="10" font-weight="400" fill="#333333" text-anchor="middle">PK userId · SK lessonId</text>
  <text x="1100" y="327" font-family="system-ui, 'Segoe UI', Roboto, Arial, sans-serif" font-size="10" font-weight="400" fill="#333333" text-anchor="middle">on-demand, encrypted at rest</text>
  <rect x="980" y="420" width="240" height="60" rx="6" fill="#ffe6cc" stroke="#d79b00" stroke-width="1.4"/>
  <text x="1100" y="447.5" font-family="system-ui, 'Segoe UI', Roboto, Arial, sans-serif" font-size="11.5" font-weight="600" fill="#333333" text-anchor="middle">S3 — learncode-media</text>
  <text x="1100" y="460.5" font-family="system-ui, 'Segoe UI', Roboto, Arial, sans-serif" font-size="10" font-weight="400" fill="#333333" text-anchor="middle">media and static assets</text>
  <rect x="980" y="530" width="240" height="70" rx="6" fill="#ffe6cc" stroke="#d79b00" stroke-width="1.4"/>
  <text x="1100" y="562.5" font-family="system-ui, 'Segoe UI', Roboto, Arial, sans-serif" font-size="11.5" font-weight="600" fill="#333333" text-anchor="middle">CloudWatch Logs</text>
  <text x="1100" y="575.5" font-family="system-ui, 'Segoe UI', Roboto, Arial, sans-serif" font-size="10" font-weight="400" fill="#333333" text-anchor="middle">structured JSON request logs</text>
  <rect x="330" y="620" width="240" height="80" rx="6" fill="#d5e8d4" stroke="#82b366" stroke-width="1.4"/>
  <text x="450" y="651" font-family="system-ui, 'Segoe UI', Roboto, Arial, sans-serif" font-size="11.5" font-weight="600" fill="#333333" text-anchor="middle">MongoDB Atlas</text>
  <text x="450" y="664" font-family="system-ui, 'Segoe UI', Roboto, Arial, sans-serif" font-size="10" font-weight="400" fill="#333333" text-anchor="middle">database learncode</text>
  <text x="450" y="677" font-family="system-ui, 'Segoe UI', Roboto, Arial, sans-serif" font-size="10" font-weight="400" fill="#333333" text-anchor="middle">content + user state</text>
  <rect x="40" y="460" width="200" height="70" rx="6" fill="#f5f5f5" stroke="#666666" stroke-width="1.4"/>
  <text x="140" y="492.5" font-family="system-ui, 'Segoe UI', Roboto, Arial, sans-serif" font-size="11.5" font-weight="600" fill="#333333" text-anchor="middle">GitHub Actions</text>
  <text x="140" y="505.5" font-family="system-ui, 'Segoe UI', Roboto, Arial, sans-serif" font-size="10" font-weight="400" fill="#333333" text-anchor="middle">lint + test gate, then deploy</text>
  <rect x="630" y="450" width="290" height="70" rx="6" fill="#e1d5e7" stroke="#9673a6" stroke-width="1.4"/>
  <text x="775" y="476" font-family="system-ui, 'Segoe UI', Roboto, Arial, sans-serif" font-size="11.5" font-weight="600" fill="#333333" text-anchor="middle">IAM role learncode-github-deploy</text>
  <text x="775" y="489" font-family="system-ui, 'Segoe UI', Roboto, Arial, sans-serif" font-size="10" font-weight="400" fill="#333333" text-anchor="middle">assumed via GitHub OIDC</text>
  <text x="775" y="502" font-family="system-ui, 'Segoe UI', Roboto, Arial, sans-serif" font-size="10" font-weight="400" fill="#333333" text-anchor="middle">(no stored AWS keys)</text>
  <rect x="630" y="560" width="290" height="55" rx="6" fill="#e1d5e7" stroke="#9673a6" stroke-width="1.4"/>
  <text x="775" y="585" font-family="system-ui, 'Segoe UI', Roboto, Arial, sans-serif" font-size="11.5" font-weight="600" fill="#333333" text-anchor="middle">SSM Run Command</text>
  <text x="775" y="598" font-family="system-ui, 'Segoe UI', Roboto, Arial, sans-serif" font-size="10" font-weight="400" fill="#333333" text-anchor="middle">deploy/update-ec2.sh</text>
  <rect x="630" y="650" width="290" height="70" rx="6" fill="#e1d5e7" stroke="#9673a6" stroke-width="1.4"/>
  <text x="775" y="676" font-family="system-ui, 'Segoe UI', Roboto, Arial, sans-serif" font-size="11.5" font-weight="600" fill="#333333" text-anchor="middle">IAM role learncode-ec2-role</text>
  <text x="775" y="689" font-family="system-ui, 'Segoe UI', Roboto, Arial, sans-serif" font-size="10" font-weight="400" fill="#333333" text-anchor="middle">lambda:InvokeFunction scoped</text>
  <text x="775" y="702" font-family="system-ui, 'Segoe UI', Roboto, Arial, sans-serif" font-size="10" font-weight="400" fill="#333333" text-anchor="middle">to explicit function ARNs</text>
</svg>
