<svg xmlns="http://www.w3.org/2000/svg" viewBox="0 0 1080 570" width="1080" height="570">
  <rect width="1080" height="570" fill="#ffffff"/>
  <text x="40" y="34" font-family="system-ui, 'Segoe UI', Roboto, Arial, sans-serif" font-size="17" font-weight="600" fill="#333333">LearnCode data model — people and institution</text>
  <path d="M 165 146 V 170.5 H 165 V 195" fill="none" stroke="#4d4d4d" stroke-width="1.3"/>
  <polygon points="165,195 160.5,186 169.5,186" fill="#4d4d4d"/>
  <rect x="167.0" y="152.0" width="52.0" height="14" fill="#ffffff" opacity="0.92"/>
  <text x="171.0" y="162.0" font-family="system-ui, 'Segoe UI', Roboto, Arial, sans-serif" font-size="10" fill="#4d4d4d" text-anchor="start">has 1..N</text>
  <path d="M 290 258 H 340 V 283 H 390" fill="none" stroke="#4d4d4d" stroke-width="1.3"/>
  <polygon points="390,283 381,278.5 381,287.5" fill="#4d4d4d"/>
  <rect x="292.0" y="244.0" width="68.5" height="14" fill="#ffffff" opacity="0.92"/>
  <text x="296.0" y="254.0" font-family="system-ui, 'Segoe UI', Roboto, Arial, sans-serif" font-size="10" fill="#4d4d4d" text-anchor="start">places 1..N</text>
  <path d="M 290 453 H 340 V 283 H 390" fill="none" stroke="#4d4d4d" stroke-width="1.3"/>
  <polygon points="390,283 381,278.5 381,287.5" fill="#4d4d4d"/>
  <rect x="292.0" y="439.0" width="63.0" height="14" fill="#ffffff" opacity="0.92"/>
  <text x="296.0" y="449.0" font-family="system-ui, 'Segoe UI', Roboto, Arial, sans-serif" font-size="10" fill="#4d4d4d" text-anchor="start">earns N..N</text>
  <path d="M 680 171.5 H 735 V 191.5 H 790" fill="none" stroke="#4d4d4d" stroke-width="1.3"/>
  <polygon points="790,191.5 781,187 781,196" fill="#4d4d4d"/>
  <rect x="682.0" y="157.5" width="74.0" height="14" fill="#ffffff" opacity="0.92"/>
  <text x="686.0" y="167.5" font-family="system-ui, 'Segoe UI', Roboto, Arial, sans-serif" font-size="10" fill="#4d4d4d" text-anchor="start">teaches 1..N</text>
  <path d="M 680 394.5 H 735 V 234.5 H 790" fill="none" stroke="#4d4d4d" stroke-width="1.3"/>
  <polygon points="790,234.5 781,230 781,239" fill="#4d4d4d"/>
  <rect x="682.0" y="380.5" width="68.5" height="14" fill="#ffffff" opacity="0.92"/>
  <text x="686.0" y="390.5" font-family="system-ui, 'Segoe UI', Roboto, Arial, sans-serif" font-size="10" fill="#4d4d4d" text-anchor="start">enrols N..N</text>
  <g>
    <rect x="40" y="60" width="250" height="86" fill="#ffffff" stroke="#6c8ebf" stroke-width="1.4"/>
    <rect x="40" y="60" width="250" height="26" fill="#dae8fc" stroke="#6c8ebf" stroke-width="1.4"/>
    <text x="165" y="72" font-family="system-ui, 'Segoe UI', Roboto, Arial, sans-serif" font-size="12" font-weight="600" fill="#333333" text-anchor="middle">University</text>
    <text x="165" y="82" font-family="system-ui, 'Segoe UI', Roboto, Arial, sans-serif" font-size="9" fill="#5a6b7d" text-anchor="middle">universities</text>
    <text x="47" y="100" font-family="system-ui, 'Segoe UI', Roboto, Arial, sans-serif" font-size="10.5" fill="#333333" font-weight="600">_id : ObjectId  PK</text>
    <line x1="40" y1="106" x2="290" y2="106" stroke="#e6e6e6" stroke-width="0.8"/>
    <text x="47" y="120" font-family="system-ui, 'Segoe UI', Roboto, Arial, sans-serif" font-size="10.5" fill="#333333">name : String</text>
    <line x1="40" y1="126" x2="290" y2="126" stroke="#e6e6e6" stroke-width="0.8"/>
    <text x="47" y="140" font-family="system-ui, 'Segoe UI', Roboto, Arial, sans-serif" font-size="10.5" fill="#333333">code : String  unique</text>
  </g>
  <g>
    <rect x="40" y="195" width="250" height="126" fill="#ffffff" stroke="#6c8ebf" stroke-width="1.4"/>
    <rect x="40" y="195" width="250" height="26" fill="#dae8fc" stroke="#6c8ebf" stroke-width="1.4"/>
    <text x="165" y="207" font-family="system-ui, 'Segoe UI', Roboto, Arial, sans-serif" font-size="12" font-weight="600" fill="#333333" text-anchor="middle">Department</text>
    <text x="165" y="217" font-family="system-ui, 'Segoe UI', Roboto, Arial, sans-serif" font-size="9" fill="#5a6b7d" text-anchor="middle">departments</text>
    <text x="47" y="235" font-family="system-ui, 'Segoe UI', Roboto, Arial, sans-serif" font-size="10.5" fill="#333333" font-weight="600">_id : ObjectId  PK</text>
    <line x1="40" y1="241" x2="290" y2="241" stroke="#e6e6e6" stroke-width="0.8"/>
    <text x="47" y="255" font-family="system-ui, 'Segoe UI', Roboto, Arial, sans-serif" font-size="10.5" fill="#333333">universityId : ObjectId  FK</text>
    <line x1="40" y1="261" x2="290" y2="261" stroke="#e6e6e6" stroke-width="0.8"/>
    <text x="47" y="275" font-family="system-ui, 'Segoe UI', Roboto, Arial, sans-serif" font-size="10.5" fill="#333333">name : String</text>
    <line x1="40" y1="281" x2="290" y2="281" stroke="#e6e6e6" stroke-width="0.8"/>
    <text x="47" y="295" font-family="system-ui, 'Segoe UI', Roboto, Arial, sans-serif" font-size="10.5" fill="#333333">code : String</text>
    <line x1="40" y1="301" x2="290" y2="301" stroke="#e6e6e6" stroke-width="0.8"/>
    <text x="47" y="315" font-family="system-ui, 'Segoe UI', Roboto, Arial, sans-serif" font-size="10.5" fill="#333333">semesterCount : Number  1-12</text>
  </g>
  <g>
    <rect x="40" y="370" width="250" height="166" fill="#ffffff" stroke="#6c8ebf" stroke-width="1.4"/>
    <rect x="40" y="370" width="250" height="26" fill="#dae8fc" stroke="#6c8ebf" stroke-width="1.4"/>
    <text x="165" y="382" font-family="system-ui, 'Segoe UI', Roboto, Arial, sans-serif" font-size="12" font-weight="600" fill="#333333" text-anchor="middle">Badge</text>
    <text x="165" y="392" font-family="system-ui, 'Segoe UI', Roboto, Arial, sans-serif" font-size="9" fill="#5a6b7d" text-anchor="middle">badges</text>
    <text x="47" y="410" font-family="system-ui, 'Segoe UI', Roboto, Arial, sans-serif" font-size="10.5" fill="#333333" font-weight="600">_id : ObjectId  PK</text>
    <line x1="40" y1="416" x2="290" y2="416" stroke="#e6e6e6" stroke-width="0.8"/>
    <text x="47" y="430" font-family="system-ui, 'Segoe UI', Roboto, Arial, sans-serif" font-size="10.5" fill="#333333">name : String  unique</text>
    <line x1="40" y1="436" x2="290" y2="436" stroke="#e6e6e6" stroke-width="0.8"/>
    <text x="47" y="450" font-family="system-ui, 'Segoe UI', Roboto, Arial, sans-serif" font-size="10.5" fill="#333333">description : String</text>
    <line x1="40" y1="456" x2="290" y2="456" stroke="#e6e6e6" stroke-width="0.8"/>
    <text x="47" y="470" font-family="system-ui, 'Segoe UI', Roboto, Arial, sans-serif" font-size="10.5" fill="#333333">icon : String  /badges/*.svg</text>
    <line x1="40" y1="476" x2="290" y2="476" stroke="#e6e6e6" stroke-width="0.8"/>
    <text x="47" y="490" font-family="system-ui, 'Segoe UI', Roboto, Arial, sans-serif" font-size="10.5" fill="#333333">criteria.type : enum  7 types</text>
    <line x1="40" y1="496" x2="290" y2="496" stroke="#e6e6e6" stroke-width="0.8"/>
    <text x="47" y="510" font-family="system-ui, 'Segoe UI', Roboto, Arial, sans-serif" font-size="10.5" fill="#333333">criteria.threshold : Number</text>
    <line x1="40" y1="516" x2="290" y2="516" stroke="#e6e6e6" stroke-width="0.8"/>
    <text x="47" y="530" font-family="system-ui, 'Segoe UI', Roboto, Arial, sans-serif" font-size="10.5" fill="#333333">xpValue : Number</text>
  </g>
  <g>
    <rect x="390" y="60" width="290" height="446" fill="#ffffff" stroke="#6c8ebf" stroke-width="1.4"/>
    <rect x="390" y="60" width="290" height="26" fill="#dae8fc" stroke="#6c8ebf" stroke-width="1.4"/>
    <text x="535" y="72" font-family="system-ui, 'Segoe UI', Roboto, Arial, sans-serif" font-size="12" font-weight="600" fill="#333333" text-anchor="middle">User</text>
    <text x="535" y="82" font-family="system-ui, 'Segoe UI', Roboto, Arial, sans-serif" font-size="9" fill="#5a6b7d" text-anchor="middle">users</text>
    <text x="397" y="100" font-family="system-ui, 'Segoe UI', Roboto, Arial, sans-serif" font-size="10.5" fill="#333333" font-weight="600">_id : ObjectId  PK</text>
    <line x1="390" y1="106" x2="680" y2="106" stroke="#e6e6e6" stroke-width="0.8"/>
    <text x="397" y="120" font-family="system-ui, 'Segoe UI', Roboto, Arial, sans-serif" font-size="10.5" fill="#333333">cognitoId : String  unique</text>
    <line x1="390" y1="126" x2="680" y2="126" stroke="#e6e6e6" stroke-width="0.8"/>
    <text x="397" y="140" font-family="system-ui, 'Segoe UI', Roboto, Arial, sans-serif" font-size="10.5" fill="#333333">email : String  unique</text>
    <line x1="390" y1="146" x2="680" y2="146" stroke="#e6e6e6" stroke-width="0.8"/>
    <text x="397" y="160" font-family="system-ui, 'Segoe UI', Roboto, Arial, sans-serif" font-size="10.5" fill="#333333">firstName : String</text>
    <line x1="390" y1="166" x2="680" y2="166" stroke="#e6e6e6" stroke-width="0.8"/>
    <text x="397" y="180" font-family="system-ui, 'Segoe UI', Roboto, Arial, sans-serif" font-size="10.5" fill="#333333">lastName : String</text>
    <line x1="390" y1="186" x2="680" y2="186" stroke="#e6e6e6" stroke-width="0.8"/>
    <text x="397" y="200" font-family="system-ui, 'Segoe UI', Roboto, Arial, sans-serif" font-size="10.5" fill="#333333">role : enum  student|instructor|admin</text>
    <line x1="390" y1="206" x2="680" y2="206" stroke="#e6e6e6" stroke-width="0.8"/>
    <text x="397" y="220" font-family="system-ui, 'Segoe UI', Roboto, Arial, sans-serif" font-size="10.5" fill="#333333">avatar : String</text>
    <line x1="390" y1="226" x2="680" y2="226" stroke="#e6e6e6" stroke-width="0.8"/>
    <text x="397" y="240" font-family="system-ui, 'Segoe UI', Roboto, Arial, sans-serif" font-size="10.5" fill="#333333">bio : String</text>
    <line x1="390" y1="246" x2="680" y2="246" stroke="#e6e6e6" stroke-width="0.8"/>
    <text x="397" y="260" font-family="system-ui, 'Segoe UI', Roboto, Arial, sans-serif" font-size="10.5" fill="#333333">universityId : ObjectId  FK</text>
    <line x1="390" y1="266" x2="680" y2="266" stroke="#e6e6e6" stroke-width="0.8"/>
    <text x="397" y="280" font-family="system-ui, 'Segoe UI', Roboto, Arial, sans-serif" font-size="10.5" fill="#333333">departmentId : ObjectId  FK</text>
    <line x1="390" y1="286" x2="680" y2="286" stroke="#e6e6e6" stroke-width="0.8"/>
    <text x="397" y="300" font-family="system-ui, 'Segoe UI', Roboto, Arial, sans-serif" font-size="10.5" fill="#333333">enrolledCourses : ObjectId[]  FK</text>
    <line x1="390" y1="306" x2="680" y2="306" stroke="#e6e6e6" stroke-width="0.8"/>
    <text x="397" y="320" font-family="system-ui, 'Segoe UI', Roboto, Arial, sans-serif" font-size="10.5" fill="#333333">badges : ObjectId[]  FK</text>
    <line x1="390" y1="326" x2="680" y2="326" stroke="#e6e6e6" stroke-width="0.8"/>
    <text x="397" y="340" font-family="system-ui, 'Segoe UI', Roboto, Arial, sans-serif" font-size="10.5" fill="#333333">xpPoints : Number</text>
    <line x1="390" y1="346" x2="680" y2="346" stroke="#e6e6e6" stroke-width="0.8"/>
    <text x="397" y="360" font-family="system-ui, 'Segoe UI', Roboto, Arial, sans-serif" font-size="10.5" fill="#333333">streak : Number</text>
    <line x1="390" y1="366" x2="680" y2="366" stroke="#e6e6e6" stroke-width="0.8"/>
    <text x="397" y="380" font-family="system-ui, 'Segoe UI', Roboto, Arial, sans-serif" font-size="10.5" fill="#333333">lessonsCompleted : Number</text>
    <line x1="390" y1="386" x2="680" y2="386" stroke="#e6e6e6" stroke-width="0.8"/>
    <text x="397" y="400" font-family="system-ui, 'Segoe UI', Roboto, Arial, sans-serif" font-size="10.5" fill="#333333">unaidedCompletions : Number</text>
    <line x1="390" y1="406" x2="680" y2="406" stroke="#e6e6e6" stroke-width="0.8"/>
    <text x="397" y="420" font-family="system-ui, 'Segoe UI', Roboto, Arial, sans-serif" font-size="10.5" fill="#333333">quizzesPassed : Number</text>
    <line x1="390" y1="426" x2="680" y2="426" stroke="#e6e6e6" stroke-width="0.8"/>
    <text x="397" y="440" font-family="system-ui, 'Segoe UI', Roboto, Arial, sans-serif" font-size="10.5" fill="#333333">coursesCompleted : Number</text>
    <line x1="390" y1="446" x2="680" y2="446" stroke="#e6e6e6" stroke-width="0.8"/>
    <text x="397" y="460" font-family="system-ui, 'Segoe UI', Roboto, Arial, sans-serif" font-size="10.5" fill="#333333">notesWritten : Number</text>
    <line x1="390" y1="466" x2="680" y2="466" stroke="#e6e6e6" stroke-width="0.8"/>
    <text x="397" y="480" font-family="system-ui, 'Segoe UI', Roboto, Arial, sans-serif" font-size="10.5" fill="#333333">lastActiveAt : Date</text>
    <line x1="390" y1="486" x2="680" y2="486" stroke="#e6e6e6" stroke-width="0.8"/>
    <text x="397" y="500" font-family="system-ui, 'Segoe UI', Roboto, Arial, sans-serif" font-size="10.5" fill="#333333">lastCompletionAt : Date</text>
  </g>
  <g>
    <rect x="790" y="170" width="230" height="86" fill="#ffffff" stroke="#b3b3b3" stroke-width="1.4" stroke-dasharray="5 3"/>
    <rect x="790" y="170" width="230" height="26" fill="#f0f0f0" stroke="#b3b3b3" stroke-width="1.4" stroke-dasharray="5 3"/>
    <text x="905" y="182" font-family="system-ui, 'Segoe UI', Roboto, Arial, sans-serif" font-size="12" font-weight="600" fill="#666666" text-anchor="middle">Course</text>
    <text x="905" y="192" font-family="system-ui, 'Segoe UI', Roboto, Arial, sans-serif" font-size="9" fill="#888888" text-anchor="middle">detail in figure 2</text>
    <text x="797" y="210" font-family="system-ui, 'Segoe UI', Roboto, Arial, sans-serif" font-size="10.5" fill="#666666" font-weight="600">_id : ObjectId  PK</text>
    <line x1="790" y1="216" x2="1020" y2="216" stroke="#e6e6e6" stroke-width="0.8"/>
    <text x="797" y="230" font-family="system-ui, 'Segoe UI', Roboto, Arial, sans-serif" font-size="10.5" fill="#666666">instructor : ObjectId  FK</text>
    <line x1="790" y1="236" x2="1020" y2="236" stroke="#e6e6e6" stroke-width="0.8"/>
    <text x="797" y="250" font-family="system-ui, 'Segoe UI', Roboto, Arial, sans-serif" font-size="10.5" fill="#666666">departmentId : ObjectId  FK</text>
  </g>
  <rect x="790" y="400" width="270" height="74" fill="#f9f9f9" stroke="#999999" stroke-width="1.2"/>
  <text x="925" y="417" font-family="system-ui, 'Segoe UI', Roboto, Arial, sans-serif" font-size="11" font-weight="600" fill="#333333" text-anchor="middle">Legend</text>
  <rect x="798" y="433" width="13" height="10" fill="#dae8fc" stroke="#6c8ebf" stroke-width="1.2"/>
  <text x="818" y="442" font-family="system-ui, 'Segoe UI', Roboto, Arial, sans-serif" font-size="10" fill="#333333">MongoDB Atlas — content and user state</text>
  <rect x="798" y="457" width="13" height="10" fill="#f0f0f0" stroke="#b3b3b3" stroke-width="1.2" stroke-dasharray="3 2"/>
  <text x="818" y="466" font-family="system-ui, 'Segoe UI', Roboto, Arial, sans-serif" font-size="10" fill="#333333">stub — full definition in figure 2</text>
</svg>
